<?xml version="1.0" encoding="UTF-8"?><svg id="Layer_2" xmlns="http://www.w3.org/2000/svg" viewBox="0 0 1051.25 807.01"><defs><style>.cls-1{fill:#ed6c2d;}</style></defs><g id="Layer_1-2"><path class="cls-1" d="M472.08,348.12v277.63l162.35-319.91s292.08-51.86,299.33,53.27c7.25,105.13-241.38,219.51-241.38,219.51l170.38,228.38h170.38l-192.13-217.5s278.55-124.49,194.4-298.4C942.74,99.57,592.15,242.43,0,161.75c43.5,253.75,472.08,186.38,472.08,186.38Z"/><path class="cls-1" d="M796.28,377.67c-3.04,18.27-18.89,32.18-37.95,32.18-21.27,0-38.48-17.22-38.48-38.48s17.21-38.48,38.48-38.48c10.92,0,20.78,4.58,27.83,11.93-.4-.04-.75-.04-1.1-.04-10.13,0-18.36,8.19-18.36,18.36s8.23,18.36,18.36,18.36c4.23,0,8.1-1.41,11.23-3.83Z"/><path class="cls-1" d="M264.79,141.68c81.63,17.83,416.43,14.8,416.43,14.8L167.21,0s-.42,120.27,97.58,141.68Z"/></g></svg>