<?xml version="1.0" encoding="UTF-8"?><svg id="Layer_2" xmlns="http://www.w3.org/2000/svg" viewBox="0 0 1046.85 267.91"><defs><style>.cls-1{fill:#ed6c2d;}</style></defs><g id="Layer_1-2"><path class="cls-1" d="M156.72,115.57v92.17l53.9-106.2s96.97-17.22,99.37,17.69c2.41,34.9-80.13,72.87-80.13,72.87l56.56,75.82h56.56l-63.78-72.21s92.47-41.33,64.54-99.06C312.97,33.06,196.58,80.48,0,53.7c14.44,84.24,156.72,61.87,156.72,61.87Z"/><path class="cls-1" d="M264.35,125.38c-1,6.06-6.26,10.69-12.61,10.69-7.05,0-12.77-5.72-12.77-12.77s5.72-12.77,12.77-12.77c3.64,0,6.92,1.51,9.24,3.96-.12-.01-.24-.02-.36-.02-3.38,0-6.11,2.73-6.11,6.11s2.73,6.09,6.11,6.09c1.4,0,2.68-.48,3.72-1.28Z"/><path class="cls-1" d="M87.91,47.03c27.1,5.92,138.25,4.91,138.25,4.91L55.51,0s-.14,39.93,32.39,47.03Z"/><path class="cls-1" d="M469.32,177.58c-1.49-1.81-3.32-3.2-5.48-4.17-2.17-.97-4.67-1.46-7.52-1.46s-5.48.55-7.91,1.65c-2.43,1.1-4.53,2.64-6.31,4.61-1.78,1.97-3.17,4.32-4.17,7.04-1,2.72-1.51,5.66-1.51,8.83s.5,6.2,1.51,8.88c1,2.69,2.38,5.01,4.12,6.99,1.75,1.97,3.8,3.51,6.16,4.61,2.36,1.1,4.9,1.65,7.62,1.65,3.11,0,5.86-.65,8.25-1.94,2.39-1.29,4.37-3.11,5.92-5.43l12.62,9.41c-2.91,4.08-6.6,7.08-11.06,9.03-4.46,1.94-9.06,2.91-13.78,2.91-5.37,0-10.32-.84-14.85-2.52-4.53-1.68-8.44-4.09-11.74-7.23-3.3-3.14-5.87-6.94-7.72-11.4-1.84-4.46-2.77-9.45-2.77-14.95s.92-10.48,2.77-14.95c1.84-4.46,4.42-8.26,7.72-11.4,3.3-3.14,7.21-5.55,11.74-7.23,4.53-1.68,9.48-2.52,14.85-2.52,1.94,0,3.96.18,6.07.53,2.1.36,4.17.92,6.21,1.7,2.04.78,3.99,1.81,5.87,3.11,1.88,1.3,3.56,2.88,5.05,4.76l-11.65,9.51Z"/><path class="cls-1" d="M489.21,155.07h14.56v73.37h-14.56v-73.37Z"/><path class="cls-1" d="M513.28,166.42c0-2.33.83-4.32,2.47-5.97,1.65-1.65,3.64-2.48,5.97-2.48s4.32.83,5.97,2.48c1.65,1.65,2.47,3.64,2.47,5.97s-.83,4.32-2.47,5.97c-1.65,1.65-3.64,2.47-5.97,2.47s-4.32-.82-5.97-2.47c-1.65-1.65-2.47-3.64-2.47-5.97ZM514.44,181.27h14.56v47.17h-14.56v-47.17Z"/><path class="cls-1" d="M571.41,196.51c-.71-1.03-1.72-1.89-3.01-2.57-1.29-.68-2.68-1.02-4.17-1.02-3.69,0-6.55,1.1-8.59,3.3-2.04,2.2-3.06,5.08-3.06,8.64s1.02,6.44,3.06,8.64c2.04,2.2,4.9,3.3,8.59,3.3,1.62,0,3.01-.35,4.17-1.07,1.16-.71,2.17-1.55,3.01-2.52l9.61,10.09c-2.27,2.33-4.93,3.96-8.01,4.9-3.07.94-6,1.41-8.78,1.41-3.62,0-7.04-.58-10.24-1.75-3.2-1.16-5.98-2.83-8.35-5-2.36-2.17-4.22-4.77-5.58-7.81-1.36-3.04-2.04-6.44-2.04-10.19s.68-7.15,2.04-10.19c1.36-3.04,3.22-5.64,5.58-7.81,2.36-2.17,5.14-3.83,8.35-5s6.61-1.75,10.24-1.75c2.78,0,5.71.47,8.78,1.41,3.07.94,5.74,2.57,8.01,4.9l-9.61,10.09Z"/><path class="cls-1" d="M586.26,155.07h14.56v44.84l16.11-18.63h17.86l-18.73,21.25,19.22,25.91h-18.34l-15.92-23.87h-.19v23.87h-14.56v-73.37Z"/><path class="cls-1" d="M642.06,159.73h26.59c3.49,0,6.81.34,9.95,1.02,3.14.68,5.89,1.81,8.25,3.4,2.36,1.59,4.24,3.72,5.63,6.41,1.39,2.69,2.09,6.03,2.09,10.04,0,4.85-1.26,8.98-3.78,12.37-2.52,3.4-6.21,5.55-11.06,6.45l17.47,29.02h-18.15l-14.36-27.46h-7.47v27.46h-15.14v-68.71ZM657.2,188.16h8.93c1.36,0,2.8-.05,4.32-.15,1.52-.1,2.89-.39,4.12-.87,1.23-.49,2.25-1.25,3.06-2.28.81-1.03,1.21-2.49,1.21-4.37,0-1.75-.36-3.14-1.07-4.17-.71-1.03-1.62-1.83-2.72-2.38-1.1-.55-2.36-.92-3.79-1.12-1.42-.19-2.81-.29-4.17-.29h-9.9v15.62Z"/><path class="cls-1" d="M732.7,222.52h-.19c-1.62,2.52-3.77,4.34-6.45,5.43-2.69,1.1-5.52,1.65-8.49,1.65-2.2,0-4.32-.31-6.36-.92-2.04-.61-3.83-1.54-5.39-2.77-1.55-1.23-2.78-2.75-3.69-4.56-.91-1.81-1.36-3.91-1.36-6.31,0-2.72.5-5.01,1.5-6.89,1-1.88,2.36-3.43,4.08-4.66,1.71-1.23,3.67-2.18,5.87-2.86,2.2-.68,4.48-1.18,6.84-1.5,2.36-.32,4.72-.52,7.08-.58,2.36-.06,4.54-.1,6.55-.1,0-2.59-.92-4.64-2.77-6.16-1.84-1.52-4.03-2.28-6.55-2.28s-4.58.5-6.55,1.5c-1.97,1-3.74,2.38-5.29,4.12l-7.76-7.96c2.72-2.52,5.89-4.42,9.51-5.68,3.62-1.26,7.38-1.89,11.26-1.89,4.27,0,7.78.53,10.53,1.6,2.75,1.07,4.95,2.64,6.6,4.71,1.65,2.07,2.8,4.61,3.45,7.62.65,3.01.97,6.49.97,10.43v23.97h-13.39v-5.92ZM729.11,207.76c-1.1,0-2.47.05-4.12.15-1.65.1-3.24.37-4.75.83-1.52.45-2.81,1.13-3.88,2.04-1.07.91-1.6,2.17-1.6,3.79,0,1.75.74,3.04,2.23,3.88,1.49.84,3.04,1.26,4.66,1.26,1.42,0,2.8-.19,4.12-.58,1.32-.39,2.51-.94,3.54-1.65,1.03-.71,1.86-1.62,2.47-2.72.61-1.1.92-2.39.92-3.88v-3.11h-3.59Z"/><path class="cls-1" d="M756.58,155.07h14.56v31.25h.19c1.68-2.26,3.83-3.87,6.45-4.8,2.62-.94,5.45-1.41,8.49-1.41,3.36,0,6.37.7,9.03,2.09,2.65,1.39,4.9,3.25,6.75,5.58,1.84,2.33,3.27,5,4.27,8.01,1,3.01,1.5,6.16,1.5,9.46,0,3.56-.55,6.83-1.65,9.8-1.1,2.98-2.67,5.55-4.71,7.72-2.04,2.17-4.48,3.85-7.33,5.05-2.85,1.2-6.02,1.8-9.51,1.8-1.68,0-3.27-.23-4.75-.68-1.49-.45-2.86-1.03-4.12-1.75-1.26-.71-2.36-1.5-3.3-2.38-.94-.87-1.7-1.73-2.28-2.57h-.19v6.21h-13.39v-73.37ZM769.97,204.85c0,3.56,1.02,6.44,3.06,8.64,2.04,2.2,4.9,3.3,8.59,3.3s6.55-1.1,8.59-3.3c2.04-2.2,3.06-5.08,3.06-8.64s-1.02-6.44-3.06-8.64c-2.04-2.2-4.9-3.3-8.59-3.3s-6.55,1.1-8.59,3.3c-2.04,2.2-3.06,5.08-3.06,8.64Z"/><path class="cls-1" d="M817.72,155.07h14.56v31.25h.19c1.68-2.26,3.83-3.87,6.45-4.8,2.62-.94,5.45-1.41,8.49-1.41,3.36,0,6.37.7,9.03,2.09,2.65,1.39,4.9,3.25,6.75,5.58,1.84,2.33,3.27,5,4.27,8.01,1,3.01,1.5,6.16,1.5,9.46,0,3.56-.55,6.83-1.65,9.8-1.1,2.98-2.67,5.55-4.71,7.72-2.04,2.17-4.48,3.85-7.33,5.05-2.85,1.2-6.02,1.8-9.51,1.8-1.68,0-3.27-.23-4.75-.68-1.49-.45-2.86-1.03-4.12-1.75-1.26-.71-2.36-1.5-3.3-2.38-.94-.87-1.7-1.73-2.28-2.57h-.19v6.21h-13.39v-73.37ZM831.11,204.85c0,3.56,1.02,6.44,3.06,8.64,2.04,2.2,4.9,3.3,8.59,3.3s6.55-1.1,8.59-3.3c2.04-2.2,3.06-5.08,3.06-8.64s-1.02-6.44-3.06-8.64c-2.04-2.2-4.9-3.3-8.59-3.3s-6.55,1.1-8.59,3.3c-2.04,2.2-3.06,5.08-3.06,8.64Z"/><path class="cls-1" d="M876.53,166.42c0-2.33.83-4.32,2.47-5.97,1.65-1.65,3.64-2.48,5.97-2.48s4.32.83,5.97,2.48c1.65,1.65,2.47,3.64,2.47,5.97s-.83,4.32-2.47,5.97c-1.65,1.65-3.64,2.47-5.97,2.47s-4.32-.82-5.97-2.47c-1.65-1.65-2.47-3.64-2.47-5.97ZM877.69,181.27h14.56v47.17h-14.56v-47.17Z"/><path class="cls-1" d="M934.85,192.92h-12.81v15.72c0,1.3.06,2.47.19,3.54.13,1.07.42,1.99.87,2.77.45.78,1.15,1.38,2.09,1.8.94.42,2.18.63,3.74.63.78,0,1.8-.08,3.06-.24,1.26-.16,2.21-.53,2.86-1.12v12.13c-1.62.58-3.3.97-5.05,1.16-1.75.19-3.46.29-5.14.29-2.46,0-4.72-.26-6.79-.78-2.07-.52-3.88-1.34-5.44-2.47-1.55-1.13-2.77-2.6-3.64-4.42-.87-1.81-1.31-4.01-1.31-6.6v-22.42h-9.32v-11.65h9.32v-13.97h14.56v13.97h12.81v11.65Z"/><path class="cls-1" d="M942.52,220.09c0-1.23.23-2.39.68-3.49.45-1.1,1.08-2.05,1.89-2.86.81-.81,1.76-1.44,2.86-1.89,1.1-.45,2.26-.68,3.49-.68s2.39.23,3.49.68c1.1.45,2.05,1.08,2.86,1.89.81.81,1.44,1.76,1.89,2.86.45,1.1.68,2.27.68,3.49s-.23,2.39-.68,3.49c-.45,1.1-1.08,2.05-1.89,2.86-.81.81-1.76,1.44-2.86,1.89-1.1.45-2.27.68-3.49.68s-2.39-.23-3.49-.68c-1.1-.45-2.05-1.08-2.86-1.89-.81-.81-1.44-1.76-1.89-2.86-.45-1.1-.68-2.26-.68-3.49Z"/><path class="cls-1" d="M969.98,166.42c0-2.33.83-4.32,2.47-5.97,1.65-1.65,3.64-2.48,5.97-2.48s4.32.83,5.97,2.48c1.65,1.65,2.47,3.64,2.47,5.97s-.83,4.32-2.47,5.97c-1.65,1.65-3.64,2.47-5.97,2.47s-4.32-.82-5.97-2.47c-1.65-1.65-2.47-3.64-2.47-5.97ZM971.15,181.27h14.56v47.17h-14.56v-47.17Z"/><path class="cls-1" d="M994.44,204.85c0-3.75.68-7.15,2.04-10.19,1.36-3.04,3.22-5.64,5.58-7.81,2.36-2.17,5.14-3.83,8.35-5s6.61-1.75,10.24-1.75,7.04.58,10.24,1.75c3.2,1.16,5.98,2.83,8.35,5,2.36,2.17,4.22,4.77,5.58,7.81,1.36,3.04,2.04,6.44,2.04,10.19s-.68,7.15-2.04,10.19c-1.36,3.04-3.22,5.65-5.58,7.81-2.36,2.17-5.14,3.83-8.35,5-3.2,1.16-6.62,1.75-10.24,1.75s-7.04-.58-10.24-1.75c-3.2-1.16-5.98-2.83-8.35-5-2.36-2.17-4.22-4.77-5.58-7.81-1.36-3.04-2.04-6.44-2.04-10.19ZM1009,204.85c0,3.56,1.02,6.44,3.06,8.64,2.04,2.2,4.9,3.3,8.59,3.3s6.55-1.1,8.59-3.3c2.04-2.2,3.06-5.08,3.06-8.64s-1.02-6.44-3.06-8.64c-2.04-2.2-4.9-3.3-8.59-3.3s-6.55,1.1-8.59,3.3c-2.04,2.2-3.06,5.08-3.06,8.64Z"/></g></svg>